# xmcd
#
# Track frame offsets:
#	150
#	16651
#	33291
#	51254
#	69727
#	85553
#	96242
#	122635
#	138533
#	157881
#
# Disc length: 2352 seconds
#
# Revision: 0
# Processed by: cddbd v1.5.2PL0 Copyright (c) Steve Scherf et al.
# Submitted via: audiograbber 1.83.01
#
DISCID=77092e0a
DTITLE=Various Artist - Falke Top Hits 
DYEAR=1988
DGENRE=Pop
TTITLE0=Two Of Us  - Blue Night Shadow 
TTITLE1=Blind Date  - Hit The Road Jack 
TTITLE2=Joe Cocker  - Don't You Love Me Anymore 
TTITLE3=Chris Norman  - Never Make My Angel Cry 
TTITLE4=Erste Allgemeine Verunsicherung  - Märchenprinz
TTITLE5=Chubby Checker  - Let's Twist Again 
TTITLE6=Aretha Franklin  - Freeway Of Love 
TTITLE7=Eruption  - You 
TTITLE8=Rainhard Fendrich  - Kein Schöner Land 
TTITLE9=Purple Schulz  - Kleine Seen 
EXTD=
EXTT0=
EXTT1=
EXTT2=
EXTT3=
EXTT4=
EXTT5=
EXTT6=
EXTT7=
EXTT8=
EXTT9=
PLAYORDER=
